<svg xmlns="http://www.w3.org/2000/svg" width="32" height="32" viewBox="0 0 32 32"><path d="M 26 2 H 6 C 2.7 2 0 4.7 0 8 v 14 c 0 3.3 2.7 6 6 6 h 20 c 3.3 0 6 -2.7 6 -6 V 8 C 32 4.7 29.3 2 26 2 Z M 30 22 c 0 2.2 -1.8 4 -4 4 H 6 c -2.2 0 -4 -1.8 -4 -4 V 8 c 0 -2.2 1.8 -4 4 -4 h 20 c 2.2 0 4 1.8 4 4 V 22 Z M 26 9 c 0 0.6 -0.4 1 -1 1 H 13 c -0.6 0 -1 -0.4 -1 -1 s 0.4 -1 1 -1 h 12 C 25.6 8 26 8.4 26 9 Z M 12 15 c 0 -0.6 0.4 -1 1 -1 h 6 c 0.6 0 1 0.4 1 1 s -0.4 1 -1 1 h -6 C 12.4 16 12 15.6 12 15 Z M 24 21 c 0 0.6 -0.4 1 -1 1 H 13 c -0.6 0 -1 -0.4 -1 -1 s 0.4 -1 1 -1 h 10 C 23.6 20 24 20.4 24 21 Z M 9.2 9 c 0 0.7 -0.5 1.2 -1.2 1.2 S 6.8 9.7 6.8 9 S 7.3 7.8 8 7.8 S 9.2 8.3 9.2 9 Z M 9.2 15 c 0 0.7 -0.5 1.2 -1.2 1.2 S 6.8 15.7 6.8 15 s 0.5 -1.2 1.2 -1.2 S 9.2 14.3 9.2 15 Z M 9.2 21 c 0 0.7 -0.5 1.2 -1.2 1.2 S 6.8 21.7 6.8 21 s 0.5 -1.2 1.2 -1.2 S 9.2 20.3 9.2 21 Z" fill="#fff"/><path d="M0 0h24v24H0z" fill="none"/></svg>